<svg width="20" height="16" viewBox="0 0 20 16" fill="none" xmlns="http://www.w3.org/2000/svg">
<path d="M14.5195 8.05664C14.5195 8.7207 14.4316 9.36198 14.2559 9.98047C14.0866 10.5924 13.8457 11.1686 13.5332 11.709C13.2207 12.2428 12.8431 12.7311 12.4004 13.1738C11.9577 13.6165 11.4694 13.9974 10.9355 14.3164C10.4017 14.6289 9.82552 14.8698 9.20703 15.0391C8.58854 15.2148 7.94727 15.3027 7.2832 15.3027C6.61914 15.3027 5.97786 15.2148 5.35938 15.0391C4.7474 14.8698 4.17122 14.6289 3.63086 14.3164C3.09701 13.9974 2.60872 13.6165 2.16602 13.1738C1.72331 12.7311 1.34245 12.2428 1.02344 11.709C0.710938 11.1686 0.466797 10.5924 0.291016 9.98047C0.121745 9.36198 0.0371094 8.7207 0.0371094 8.05664C0.0371094 7.39258 0.121745 6.7513 0.291016 6.13281C0.466797 5.51432 0.710938 4.93815 1.02344 4.4043C1.34245 3.87044 1.72331 3.38216 2.16602 2.93945C2.60872 2.49674 3.09701 2.11914 3.63086 1.80664C4.17122 1.49414 4.7474 1.25326 5.35938 1.08398C5.97786 0.908203 6.61914 0.820312 7.2832 0.820312C7.94727 0.820312 8.58854 0.908203 9.20703 1.08398C9.82552 1.25326 10.4017 1.49414 10.9355 1.80664C11.4694 2.11914 11.9577 2.49674 12.4004 2.93945C12.8431 3.38216 13.2207 3.87044 13.5332 4.4043C13.8457 4.93815 14.0866 5.51432 14.2559 6.13281C14.4316 6.7513 14.5195 7.39258 14.5195 8.05664ZM11.7363 8.05664C11.7363 7.44466 11.6191 6.86849 11.3848 6.32812C11.1504 5.78125 10.8314 5.30924 10.4277 4.91211C10.0306 4.50846 9.55859 4.18945 9.01172 3.95508C8.47135 3.7207 7.89518 3.60352 7.2832 3.60352C6.66471 3.60352 6.08529 3.7207 5.54492 3.95508C5.00456 4.18945 4.53255 4.50846 4.12891 4.91211C3.72526 5.30924 3.40625 5.78125 3.17188 6.32812C2.9375 6.86849 2.82031 7.44466 2.82031 8.05664C2.82031 8.66862 2.9375 9.24479 3.17188 9.78516C3.40625 10.319 3.72526 10.7878 4.12891 11.1914C4.53255 11.5951 5.00456 11.9141 5.54492 12.1484C6.08529 12.3828 6.66471 12.5 7.2832 12.5C7.89518 12.5 8.47135 12.3828 9.01172 12.1484C9.55859 11.9141 10.0306 11.5951 10.4277 11.1914C10.8314 10.7878 11.1504 10.319 11.3848 9.78516C11.6191 9.24479 11.7363 8.66862 11.7363 8.05664ZM19.0703 14.0039C19.0703 14.2383 19.028 14.4596 18.9434 14.668C18.8587 14.8698 18.7415 15.0456 18.5918 15.1953C18.4421 15.3451 18.2663 15.4622 18.0645 15.5469C17.8626 15.638 17.6445 15.6836 17.4102 15.6836C17.1823 15.6836 16.9642 15.638 16.7559 15.5469C16.554 15.4622 16.375 15.3451 16.2188 15.1953C16.069 15.0456 15.9486 14.8698 15.8574 14.668C15.7728 14.4596 15.7305 14.2383 15.7305 14.0039C15.7305 13.776 15.7728 13.5612 15.8574 13.3594C15.9486 13.1576 16.069 12.9818 16.2188 12.832C16.375 12.6823 16.554 12.5651 16.7559 12.4805C16.9642 12.3893 17.1823 12.3438 17.4102 12.3438C17.6445 12.3438 17.8626 12.3893 18.0645 12.4805C18.2663 12.5651 18.4421 12.6823 18.5918 12.832C18.7415 12.9818 18.8587 13.1576 18.9434 13.3594C19.028 13.5612 19.0703 13.776 19.0703 14.0039Z" fill="white"/>
</svg>
